<svg version="1.1" id="Layer_1" xmlns="http://www.w3.org/2000/svg" xmlns:xlink="http://www.w3.org/1999/xlink" x="0px" y="0px"
	 width="100%" viewBox="0 0 192 192" enable-background="new 0 0 192 192" xml:space="preserve">
<path fill="#dddf00" opacity="1.000000" stroke="none" 
	d="
M66.324829,66.392303 
	C76.194351,48.469566 85.874161,30.862686 96.181175,12.114976 
	C117.374680,49.102322 135.825836,86.116302 157.429413,121.160362 
	C155.292419,123.382103 153.184692,122.926453 151.257599,122.946457 
	C144.925690,123.012215 138.592499,122.940407 132.259949,122.962700 
	C126.417824,122.983261 122.074928,120.700134 119.491058,115.236420 
	C117.523010,111.074898 115.273720,107.046379 113.296036,103.240585 
	C114.876343,101.207420 116.290619,102.998474 117.542358,102.232300 
	C118.248573,100.706413 117.120117,99.320816 116.158699,98.985992 
	C108.653709,96.372383 107.553406,88.887703 104.040627,83.289177 
	C103.128006,81.834671 100.744766,79.820465 104.118698,78.037323 
	C104.884552,77.632576 104.138641,76.485504 103.761818,75.776382 
	C101.510773,71.540329 99.225685,67.322350 96.348244,61.976593 
	C93.274292,67.599426 90.717850,72.275642 87.897079,77.435356 
	C91.095055,77.603630 93.646896,77.737907 96.198738,77.872185 
	C88.952652,79.812851 86.928642,86.155769 84.438026,91.726654 
	C82.678185,95.662964 79.535408,97.555183 76.250572,100.044281 
	C80.087067,99.841309 83.923561,99.638344 87.897781,99.428085 
	C87.691010,100.167061 87.634880,100.720436 87.518478,100.733421 
	C78.756889,101.710754 75.127899,108.184418 72.238228,115.237335 
	C69.815430,121.150726 65.683472,123.481850 59.351303,123.101471 
	C53.207504,122.732407 47.023884,123.051682 40.858227,123.005325 
	C39.077393,122.991936 37.170902,123.390099 34.974255,121.422768 
	C45.605206,103.436150 56.377724,85.352127 66.324829,66.392303 
z"/>
</svg>